<?xml version="1.0" encoding="utf-8"?>
<!-- Generator: Adobe Illustrator 21.0.2, SVG Export Plug-In . SVG Version: 6.00 Build 0)  -->
<svg version="1.1" id="Livello_1" xmlns="http://www.w3.org/2000/svg" xmlns:xlink="http://www.w3.org/1999/xlink" x="0px" y="0px"
	 viewBox="0 0 168.1 81.1" style="enable-background:new 0 0 168.1 81.1;" xml:space="preserve">
<style type="text/css">
	.st0{fill:#335A96;}
	.st1{fill:#98BB39;}
</style>
<title>H_lg_Selexi_home</title>
<g>
	<path class="st0" d="M168.1,21c0,0.6-0.1,1.1-0.2,1.5c-0.1,0.4-0.3,0.8-0.6,1c-0.3,0.3-0.6,0.4-1.1,0.6c-0.4,0.1-0.9,0.2-1.6,0.2
		c-0.6,0-1.1-0.1-1.6-0.2c-0.4-0.1-0.8-0.3-1.1-0.6c-0.3-0.3-0.5-0.6-0.6-1c-0.1-0.4-0.2-0.9-0.2-1.5c0-0.6,0.1-1.1,0.2-1.5
		c0.1-0.4,0.3-0.8,0.6-1s0.6-0.4,1.1-0.6c0.4-0.1,0.9-0.2,1.6-0.2c0.6,0,1.1,0.1,1.6,0.2c0.4,0.1,0.8,0.3,1.1,0.6
		c0.3,0.3,0.5,0.6,0.6,1C168,19.8,168.1,20.4,168.1,21z M162.2,21c0,0.5,0,0.9,0.1,1.2c0.1,0.3,0.2,0.6,0.4,0.8
		c0.2,0.2,0.4,0.3,0.7,0.4c0.3,0.1,0.7,0.1,1.2,0.1c0.5,0,0.9,0,1.2-0.1c0.3-0.1,0.6-0.2,0.7-0.4c0.2-0.2,0.3-0.4,0.4-0.8
		c0.1-0.3,0.1-0.7,0.1-1.2c0-0.5,0-0.9-0.1-1.2c-0.1-0.3-0.2-0.6-0.4-0.8c-0.2-0.2-0.4-0.3-0.7-0.4c-0.3-0.1-0.7-0.1-1.2-0.1
		c-0.5,0-0.9,0-1.2,0.1c-0.3,0.1-0.6,0.2-0.7,0.4c-0.2,0.2-0.3,0.4-0.4,0.8C162.3,20.1,162.2,20.5,162.2,21z M166.1,20.4
		c0,0.2,0,0.4-0.1,0.6s-0.2,0.3-0.4,0.4l0.7,1.2h-1l-0.6-1.1h-0.4v1.1h-0.9v-3.4h1.7c0.4,0,0.6,0.1,0.8,0.2s0.3,0.4,0.3,0.8V20.4z
		 M165.2,20.3c0-0.2,0-0.3-0.1-0.3c-0.1,0-0.2-0.1-0.4-0.1h-0.5v0.9h0.5c0.2,0,0.3,0,0.4-0.1c0.1,0,0.1-0.2,0.1-0.3V20.3z"/>
	<path class="st0" d="M115.3,78.7c-0.4,0-0.9-0.2-1.2-0.4c-0.8-0.7-0.9-1.9-0.2-2.6L136,48.8c0.1-0.2,0.2-0.3,0.3-0.4
		c0.2-0.1,0.3-0.2,0.5-0.3c0.1,0,0.1,0,0.2-0.1c0.2-0.1,0.4-0.1,0.5-0.1c0.2,0,0.4,0,0.6,0.1c0.1,0,0.1,0,0.2,0.1
		c0.2,0.1,0.3,0.1,0.4,0.2c0.2,0.1,0.3,0.2,0.4,0.4l10.1,12.2l0.1,0.1c0.6,0.6,1.3,0.9,2.1,0.9s1.5-0.3,2-0.8c0.5-0.5,0.8-1.3,0.8-2
		c0-0.8-0.3-1.5-0.8-2l-0.1-0.2l-10.9-13.3c-0.6-0.7-0.6-1.8,0.1-2.5l10-12.2c0.4-0.4,0.9-0.7,1.4-0.7c0.4,0,0.9,0.2,1.2,0.4
		c0.4,0.3,0.6,0.8,0.7,1.3c0,0.5-0.1,1-0.4,1.4l-9,11.1l9.9,12.1c2.5,2.6,2.5,6.8-0.1,9.4c-1.3,1.3-2.9,2-4.7,2
		c-1.6,0-3.1-0.6-4.3-1.6c-0.1-0.1-0.2-0.2-0.3-0.2l-0.1-0.1c-0.1-0.1-0.2-0.2-0.3-0.3l-8.9-10.7L116.7,78
		C116.4,78.4,115.9,78.7,115.3,78.7z"/>
	<path class="st0" d="M86.9,61.9c-1,0-1.9-0.8-1.9-1.9V24.6c0-1,0.8-1.9,1.9-1.9c1,0,1.9,0.8,1.9,1.9V60
		C88.8,61,87.9,61.9,86.9,61.9z"/>
	<path class="st0" d="M164.6,61.9c-1,0-1.9-0.8-1.9-1.9V34.8c0-1,0.8-1.9,1.9-1.9c1,0,1.9,0.8,1.9,1.9V60
		C166.5,61,165.6,61.9,164.6,61.9z"/>
	<path class="st0" d="M106.9,61.9l-0.4,0l0,0h-0.3c-3.7,0-6.7-0.8-8.9-2.5c-2.4-1.8-3.7-4.4-3.7-7.6v-7.6c0-3.5,1.4-6.3,4.1-8.3
		c2.5-1.9,5.8-2.9,9.8-2.9c4.1,0,7.3,1,9.7,2.9c2.5,2,3.8,4.8,3.8,8.2v3.6c0,1-0.8,1.9-1.9,1.9h-16c-1,0-1.9-0.8-1.9-1.9
		c0-1,0.8-1.9,1.9-1.9h14.1v-1.8c0-2.3-0.8-4-2.4-5.3c-1.7-1.4-4.2-2.1-7.4-2.1c-3.1,0-5.7,0.7-7.5,2.1c-1.8,1.3-2.6,3-2.6,5.3v7.6
		c0,2,0.7,3.5,2.1,4.6c1.6,1.2,3.9,1.8,6.7,1.8h0.2v0l0.4,0l0.1,0h9.9c1,0,1.9,0.8,1.9,1.9c0,1-0.8,1.9-1.9,1.9H106.9z"/>
	<path class="st0" d="M66.1,61.9l-0.4,0l0,0h-0.3c-3.7,0-6.7-0.8-8.9-2.5c-2.4-1.8-3.7-4.4-3.7-7.6v-7.6c0-3.5,1.4-6.3,4.1-8.3
		c2.5-1.9,5.8-2.9,9.8-2.9c4.1,0,7.3,1,9.7,2.9c2.5,2,3.8,4.8,3.8,8.2v3.6c0,1-0.8,1.9-1.9,1.9h-16c-1,0-1.9-0.8-1.9-1.9
		c0-1,0.8-1.9,1.9-1.9h14.1v-1.8c0-2.3-0.8-4-2.4-5.3c-1.7-1.4-4.2-2.1-7.4-2.1c-3.1,0-5.7,0.7-7.5,2.1c-1.8,1.3-2.6,3-2.6,5.3v7.6
		c0,2,0.7,3.5,2.1,4.6c1.6,1.2,3.9,1.8,6.7,1.8h0.2l0,0l0.4,0l0.1,0H76c1,0,1.9,0.8,1.9,1.9c0,1-0.8,1.9-1.9,1.9H66.1z"/>
	<path class="st1" d="M165.8,0.5c-0.3-0.3-0.8-0.4-1.2-0.4c-0.6,0-1.1,0.2-1.4,0.7l-25.6,31.1l-8.9-10.7c-0.1-0.1-0.2-0.2-0.3-0.3
		l-0.1-0.1c-0.1-0.1-0.2-0.1-0.3-0.2c-1.2-1-2.8-1.6-4.3-1.6c-1.8,0-3.5,0.7-4.7,2c-2.6,2.6-2.6,6.8-0.1,9.4l9.9,12.1l0,0l1,1.2
		c0.4,0.4,0.9,0.7,1.5,0.7c0.4,0,0.9-0.2,1.2-0.5c0.1-0.1,0.1-0.1,0.1-0.2l0,0c0.1-0.1,0.1-0.1,0.1-0.2c0.1-0.1,0.1-0.2,0.2-0.3
		c0.1-0.1,0.1-0.3,0.1-0.4c0-0.1,0.1-0.1,0.1-0.2c0,0,0,0,0-0.1c0-0.2,0-0.4-0.1-0.5c0-0.1,0-0.1,0-0.2c-0.1-0.2-0.2-0.4-0.3-0.6
		l0,0c0,0,0,0,0,0l-2.5-3.1l-8.4-10.2l-0.1-0.2c-0.5-0.5-0.8-1.3-0.8-2c0-0.8,0.3-1.5,0.8-2c0.5-0.5,1.3-0.8,2-0.8s1.5,0.3,2.1,0.9
		l0.1,0.1L136,35.9c0.1,0.2,0.2,0.3,0.4,0.4c0.1,0.1,0.3,0.2,0.4,0.2c0.1,0,0.1,0,0.2,0.1c0.2,0.1,0.3,0.1,0.6,0.1
		c0.2,0,0.3,0,0.5-0.1c0.1,0,0.1,0,0.2-0.1c0.2-0.1,0.3-0.2,0.5-0.3c0.1-0.1,0.2-0.2,0.3-0.4l26.9-32.7
		C166.7,2.4,166.6,1.2,165.8,0.5z"/>
	<path class="st0" d="M35.4,45.1c-3.7-0.9-8.9-2.1-8.9-4.3c0-2.1,2.2-4.5,8.3-4.5c5.2,0,7.6,2.1,8.3,4.2c0,0,0,0,0,0
		c0.1,0.4,0.4,0.8,0.8,1c0,0,0,0,0,0c0.2,0.1,0.4,0.2,0.5,0.3c0,0,0.1,0,0.1,0c0.2,0.1,0.4,0.1,0.6,0.1c1.2,0,2.2-0.9,2.2-2.1
		c0-0.2,0-0.4-0.1-0.7c0,0,0,0,0-0.1l0,0c0,0,0,0,0,0C45.9,35.9,42,33,34.8,33C25.4,33,22,37.2,22,40.9c0,4.8,6.1,6.2,11.9,7.6
		l0.1,0c4.6,1.1,9.9,2.3,9.9,5.2c0,2.9-3.7,4.8-9,4.8c-5.8,0-8.6-2.3-9.5-4.7c0,0,0,0,0,0c-0.3-0.8-1.1-1.3-2-1.3c0,0,0,0,0,0
		c0,0,0,0,0,0c-1.2,0-2.1,0.9-2.1,2c0,0.3,0.1,0.6,0.2,0.8c0,0,0,0,0,0c1.6,3.5,5.7,6.5,13.4,6.5c8,0,13.5-3.3,13.5-8.2
		C48.4,48.1,40.9,46.4,35.4,45.1z"/>
	<path class="st0" d="M8.9,78.4c-0.6,0-1.2-0.1-1.5-0.2c-0.4-0.1-0.7-0.3-0.9-0.6c-0.2-0.3-0.4-0.6-0.4-0.9
		c-0.1-0.4-0.1-0.8-0.1-1.3v-0.8c0-0.5,0-1,0.1-1.4c0.1-0.4,0.2-0.7,0.4-1C6.7,72,7,71.7,7.4,71.6c0.4-0.1,0.9-0.2,1.6-0.2
		c0.6,0,1.1,0.1,1.5,0.2c0.4,0.1,0.6,0.3,0.8,0.5c0.2,0.2,0.3,0.5,0.4,0.8c0.1,0.3,0.1,0.6,0.1,0.9V74c0,0.3,0,0.6,0,0.8
		c0,0.2-0.1,0.3-0.1,0.4c-0.1,0.1-0.1,0.1-0.2,0.1c-0.1,0-0.2,0-0.4,0H6.9v0.2c0,0.4,0,0.7,0.1,1c0,0.3,0.2,0.5,0.3,0.7
		c0.2,0.2,0.4,0.3,0.6,0.4c0.2,0.1,0.6,0.1,0.9,0.1h1c0.4,0,0.8,0,1.3,0l-0.2,0.8l-0.6,0l-0.6,0H8.9z M8.9,72.1c-0.4,0-0.7,0-1,0.1
		c-0.3,0.1-0.5,0.2-0.6,0.4C7.2,72.8,7.1,73,7,73.3c0,0.3-0.1,0.6-0.1,1.1v0.2h3.9v-0.7c0-0.3,0-0.6-0.1-0.8
		c-0.1-0.3-0.2-0.5-0.3-0.6c-0.2-0.1-0.4-0.3-0.6-0.3C9.6,72.1,9.3,72.1,8.9,72.1z"/>
	<path class="st0" d="M8.9,78.4c-0.6,0-1.2-0.1-1.5-0.2c-0.4-0.1-0.7-0.3-0.9-0.6c-0.2-0.3-0.4-0.6-0.4-0.9
		c-0.1-0.4-0.1-0.8-0.1-1.3v-0.8c0-0.5,0-1,0.1-1.4c0.1-0.4,0.2-0.7,0.4-1C6.7,72,7,71.7,7.4,71.6c0.4-0.1,0.9-0.2,1.6-0.2
		c0.6,0,1.1,0.1,1.5,0.2c0.4,0.1,0.6,0.3,0.8,0.5c0.2,0.2,0.3,0.5,0.4,0.8c0.1,0.3,0.1,0.6,0.1,0.9V74c0,0.3,0,0.6,0,0.8
		c0,0.2-0.1,0.3-0.1,0.4c-0.1,0.1-0.1,0.1-0.2,0.1c-0.1,0-0.2,0-0.4,0H6.9v0.2c0,0.4,0,0.7,0.1,1c0,0.3,0.2,0.5,0.3,0.7
		c0.2,0.2,0.4,0.3,0.6,0.4c0.2,0.1,0.6,0.1,0.9,0.1h1c0.4,0,0.8,0,1.3,0l-0.2,0.8l-0.6,0l-0.6,0H8.9z M8.9,72.1c-0.4,0-0.7,0-1,0.1
		c-0.3,0.1-0.5,0.2-0.6,0.4C7.2,72.8,7.1,73,7,73.3c0,0.3-0.1,0.6-0.1,1.1v0.2h3.9v-0.7c0-0.3,0-0.6-0.1-0.8
		c-0.1-0.3-0.2-0.5-0.3-0.6c-0.2-0.1-0.4-0.3-0.6-0.3C9.6,72.1,9.3,72.1,8.9,72.1z"/>
	<path class="st0" d="M15.3,78.4l-1.4,0l0.2-0.8c0.4,0,0.9,0,1.4,0c0.5,0,1,0,1.4,0c0.6,0,1-0.1,1.2-0.2c0.3-0.2,0.4-0.5,0.4-0.9
		c0-0.1,0-0.2,0-0.4c0-0.1-0.1-0.3-0.2-0.4c-0.1-0.1-0.2-0.2-0.4-0.2c-0.2-0.1-0.3-0.1-0.6-0.1l-1.7-0.2c-0.3,0-0.6-0.1-0.8-0.2
		c-0.2-0.1-0.4-0.2-0.5-0.4c-0.1-0.2-0.2-0.3-0.3-0.5c-0.1-0.2-0.1-0.4-0.1-0.6v-0.2c0-0.6,0.2-1,0.6-1.3c0.4-0.3,1.1-0.5,2-0.5h1.4
		c0.4,0,0.9,0,1.4,0l-0.2,0.8l-0.8,0c-0.3,0-1.9,0-1.9,0c-0.5,0-0.9,0.1-1.1,0.2c-0.2,0.1-0.4,0.3-0.4,0.8c0,0.1,0,0.3,0,0.4
		c0,0.1,0.1,0.3,0.2,0.3c0.1,0.1,0.2,0.2,0.4,0.2c0.2,0.1,0.3,0.1,0.6,0.1l1.6,0.2c0.4,0,0.7,0.1,0.9,0.2c0.2,0.1,0.4,0.3,0.5,0.4
		c0.1,0.2,0.2,0.3,0.2,0.5c0,0.2,0.1,0.4,0.1,0.6v0.2c0,0.6-0.2,1-0.6,1.4c-0.4,0.3-1.1,0.5-2.1,0.5L15.3,78.4z"/>
	<path class="st0" d="M15.3,78.4l-1.4,0l0.2-0.8c0.4,0,0.9,0,1.4,0c0.5,0,1,0,1.4,0c0.6,0,1-0.1,1.2-0.2c0.3-0.2,0.4-0.5,0.4-0.9
		c0-0.1,0-0.2,0-0.4c0-0.1-0.1-0.3-0.2-0.4c-0.1-0.1-0.2-0.2-0.4-0.2c-0.2-0.1-0.3-0.1-0.6-0.1l-1.7-0.2c-0.3,0-0.6-0.1-0.8-0.2
		c-0.2-0.1-0.4-0.2-0.5-0.4c-0.1-0.2-0.2-0.3-0.3-0.5c-0.1-0.2-0.1-0.4-0.1-0.6v-0.2c0-0.6,0.2-1,0.6-1.3c0.4-0.3,1.1-0.5,2-0.5h1.4
		c0.4,0,0.9,0,1.4,0l-0.2,0.8l-0.8,0c-0.3,0-1.9,0-1.9,0c-0.5,0-0.9,0.1-1.1,0.2c-0.2,0.1-0.4,0.3-0.4,0.8c0,0.1,0,0.3,0,0.4
		c0,0.1,0.1,0.3,0.2,0.3c0.1,0.1,0.2,0.2,0.4,0.2c0.2,0.1,0.3,0.1,0.6,0.1l1.6,0.2c0.4,0,0.7,0.1,0.9,0.2c0.2,0.1,0.4,0.3,0.5,0.4
		c0.1,0.2,0.2,0.3,0.2,0.5c0,0.2,0.1,0.4,0.1,0.6v0.2c0,0.6-0.2,1-0.6,1.4c-0.4,0.3-1.1,0.5-2.1,0.5L15.3,78.4z"/>
	<path class="st0" d="M24.4,78.4c-0.5,0-1,0-1.3-0.1c-0.3-0.1-0.6-0.2-0.7-0.4c-0.2-0.2-0.3-0.4-0.4-0.7c-0.1-0.3-0.1-0.7-0.1-1.2
		v-6.1l1-0.2v1.9h2.6l-0.2,0.8h-2.4V76c0,0.3,0,0.6,0,0.8c0,0.2,0.1,0.4,0.2,0.6c0.1,0.1,0.3,0.2,0.5,0.3c0.2,0,0.4,0.1,0.7,0.1h1
		l-0.2,0.7H24.4z"/>
	<path class="st0" d="M24.4,78.4c-0.5,0-1,0-1.3-0.1c-0.3-0.1-0.6-0.2-0.7-0.4c-0.2-0.2-0.3-0.4-0.4-0.7c-0.1-0.3-0.1-0.7-0.1-1.2
		v-6.1l1-0.2v1.9h2.6l-0.2,0.8h-2.4V76c0,0.3,0,0.6,0,0.8c0,0.2,0.1,0.4,0.2,0.6c0.1,0.1,0.3,0.2,0.5,0.3c0.2,0,0.4,0.1,0.7,0.1h1
		l-0.2,0.7H24.4z"/>
	<path class="st0" d="M2.8,78.4c-0.5,0-1,0-1.3-0.1c-0.3-0.1-0.6-0.2-0.7-0.4c-0.2-0.2-0.3-0.4-0.4-0.7c-0.1-0.3-0.1-0.7-0.1-1.2
		v-6.1l1-0.2v1.9h2.6l-0.2,0.8H1.3V76c0,0.3,0,0.6,0,0.8c0,0.2,0.1,0.4,0.2,0.6c0.1,0.1,0.3,0.2,0.5,0.3c0.2,0,0.4,0.1,0.7,0.1h1
		l-0.2,0.7H2.8z"/>
	<path class="st0" d="M2.8,78.4c-0.5,0-1,0-1.3-0.1c-0.3-0.1-0.6-0.2-0.7-0.4c-0.2-0.2-0.3-0.4-0.4-0.7c-0.1-0.3-0.1-0.7-0.1-1.2
		v-6.1l1-0.2v1.9h2.6l-0.2,0.8H1.3V76c0,0.3,0,0.6,0,0.8c0,0.2,0.1,0.4,0.2,0.6c0.1,0.1,0.3,0.2,0.5,0.3c0.2,0,0.4,0.1,0.7,0.1h1
		l-0.2,0.7H2.8z"/>
	<path class="st0" d="M32.9,80.9l-0.6,0l-0.5,0l0.2-0.8c0.4,0,0.7,0,1,0h1.1c0.4,0,0.7,0,0.9-0.1c0.3-0.1,0.5-0.2,0.7-0.4
		c0.2-0.2,0.3-0.4,0.4-0.7c0.1-0.3,0.1-0.6,0.1-1v-0.7l-0.4,0.3c-0.1,0.1-0.2,0.1-0.3,0.2c-0.1,0.1-0.2,0.1-0.3,0.2
		c-0.1,0.1-0.3,0.1-0.5,0.1c-0.2,0-0.5,0-0.8,0c-0.8,0-1.5-0.2-1.9-0.5c-0.4-0.3-0.6-0.8-0.6-1.6v-4.4h1v4.1c0,0.2,0,0.5,0,0.6
		c0,0.2,0.1,0.4,0.2,0.6c0.1,0.2,0.3,0.3,0.6,0.3c0.2,0.1,0.5,0.1,0.9,0.1c0.4,0,0.8,0,1-0.1c0.3-0.1,0.5-0.2,0.7-0.3
		c0.2-0.2,0.3-0.4,0.3-0.6c0.1-0.2,0.1-0.5,0.1-0.8v-4h1v6.3c0,0.5-0.1,1-0.2,1.4c-0.1,0.4-0.3,0.7-0.5,0.9c-0.2,0.2-0.6,0.4-1,0.5
		c-0.4,0.1-0.9,0.2-1.5,0.2H32.9z"/>
	<path class="st0" d="M32.9,80.9l-0.6,0l-0.5,0l0.2-0.8c0.4,0,0.7,0,1,0h1.1c0.4,0,0.7,0,0.9-0.1c0.3-0.1,0.5-0.2,0.7-0.4
		c0.2-0.2,0.3-0.4,0.4-0.7c0.1-0.3,0.1-0.6,0.1-1v-0.7l-0.4,0.3c-0.1,0.1-0.2,0.1-0.3,0.2c-0.1,0.1-0.2,0.1-0.3,0.2
		c-0.1,0.1-0.3,0.1-0.5,0.1c-0.2,0-0.5,0-0.8,0c-0.8,0-1.5-0.2-1.9-0.5c-0.4-0.3-0.6-0.8-0.6-1.6v-4.4h1v4.1c0,0.2,0,0.5,0,0.6
		c0,0.2,0.1,0.4,0.2,0.6c0.1,0.2,0.3,0.3,0.6,0.3c0.2,0.1,0.5,0.1,0.9,0.1c0.4,0,0.8,0,1-0.1c0.3-0.1,0.5-0.2,0.7-0.3
		c0.2-0.2,0.3-0.4,0.3-0.6c0.1-0.2,0.1-0.5,0.1-0.8v-4h1v6.3c0,0.5-0.1,1-0.2,1.4c-0.1,0.4-0.3,0.7-0.5,0.9c-0.2,0.2-0.6,0.4-1,0.5
		c-0.4,0.1-0.9,0.2-1.5,0.2H32.9z"/>
	<path class="st0" d="M42.7,78.6c-0.6,0-1.1-0.1-1.5-0.2c-0.4-0.1-0.7-0.3-0.9-0.5c-0.2-0.2-0.4-0.6-0.5-1c-0.1-0.4-0.2-1-0.2-1.6
		v-0.8c0-0.6,0.1-1.2,0.2-1.6c0.1-0.4,0.3-0.7,0.5-1c0.2-0.2,0.6-0.4,0.9-0.5c0.4-0.1,0.9-0.2,1.5-0.2c0.6,0,1.1,0.1,1.5,0.2
		c0.4,0.1,0.7,0.3,0.9,0.5c0.2,0.2,0.4,0.6,0.5,1c0.1,0.4,0.2,1,0.2,1.6v0.8c0,0.6-0.1,1.2-0.2,1.6c-0.1,0.4-0.3,0.7-0.5,1
		c-0.2,0.2-0.6,0.4-0.9,0.5C43.8,78.6,43.3,78.6,42.7,78.6z M42.7,72.1c-0.4,0-0.7,0-1,0.1c-0.3,0.1-0.5,0.2-0.7,0.4
		c-0.2,0.2-0.3,0.5-0.3,0.8c-0.1,0.3-0.1,0.7-0.1,1.2v0.8c0,0.5,0,0.9,0.1,1.2c0.1,0.3,0.2,0.6,0.3,0.8c0.2,0.2,0.4,0.3,0.7,0.4
		c0.3,0.1,0.6,0.1,1,0.1c0.4,0,0.7,0,1-0.1c0.3-0.1,0.5-0.2,0.7-0.4c0.2-0.2,0.3-0.5,0.3-0.8c0.1-0.3,0.1-0.7,0.1-1.2v-0.8
		c0-0.5,0-0.9-0.1-1.2c-0.1-0.3-0.2-0.6-0.3-0.8c-0.2-0.2-0.4-0.3-0.7-0.4C43.5,72.2,43.1,72.1,42.7,72.1z"/>
	<path class="st0" d="M42.7,78.6c-0.6,0-1.1-0.1-1.5-0.2c-0.4-0.1-0.7-0.3-0.9-0.5c-0.2-0.2-0.4-0.6-0.5-1c-0.1-0.4-0.2-1-0.2-1.6
		v-0.8c0-0.6,0.1-1.2,0.2-1.6c0.1-0.4,0.3-0.7,0.5-1c0.2-0.2,0.6-0.4,0.9-0.5c0.4-0.1,0.9-0.2,1.5-0.2c0.6,0,1.1,0.1,1.5,0.2
		c0.4,0.1,0.7,0.3,0.9,0.5c0.2,0.2,0.4,0.6,0.5,1c0.1,0.4,0.2,1,0.2,1.6v0.8c0,0.6-0.1,1.2-0.2,1.6c-0.1,0.4-0.3,0.7-0.5,1
		c-0.2,0.2-0.6,0.4-0.9,0.5C43.8,78.6,43.3,78.6,42.7,78.6z M42.7,72.1c-0.4,0-0.7,0-1,0.1c-0.3,0.1-0.5,0.2-0.7,0.4
		c-0.2,0.2-0.3,0.5-0.3,0.8c-0.1,0.3-0.1,0.7-0.1,1.2v0.8c0,0.5,0,0.9,0.1,1.2c0.1,0.3,0.2,0.6,0.3,0.8c0.2,0.2,0.4,0.3,0.7,0.4
		c0.3,0.1,0.6,0.1,1,0.1c0.4,0,0.7,0,1-0.1c0.3-0.1,0.5-0.2,0.7-0.4c0.2-0.2,0.3-0.5,0.3-0.8c0.1-0.3,0.1-0.7,0.1-1.2v-0.8
		c0-0.5,0-0.9-0.1-1.2c-0.1-0.3-0.2-0.6-0.3-0.8c-0.2-0.2-0.4-0.3-0.7-0.4C43.5,72.2,43.1,72.1,42.7,72.1z"/>
	<path class="st0" d="M51.2,78.6c-1,0-1.8-0.2-2.3-0.5c-0.5-0.3-0.7-0.8-0.7-1.6v-4.9h1v4.6c0,0.2,0,0.5,0,0.7
		c0,0.2,0.1,0.4,0.3,0.6c0.1,0.2,0.3,0.3,0.6,0.3c0.2,0.1,0.6,0.1,1,0.1c0.4,0,0.8,0,1-0.1c0.3-0.1,0.5-0.2,0.6-0.3
		c0.1-0.2,0.2-0.3,0.3-0.6c0-0.2,0-0.4,0-0.7v-4.6h1v4.9c0,0.8-0.2,1.3-0.7,1.6C52.9,78.4,52.1,78.6,51.2,78.6z"/>
	<path class="st0" d="M51.2,78.6c-1,0-1.8-0.2-2.3-0.5c-0.5-0.3-0.7-0.8-0.7-1.6v-4.9h1v4.6c0,0.2,0,0.5,0,0.7
		c0,0.2,0.1,0.4,0.3,0.6c0.1,0.2,0.3,0.3,0.6,0.3c0.2,0.1,0.6,0.1,1,0.1c0.4,0,0.8,0,1-0.1c0.3-0.1,0.5-0.2,0.6-0.3
		c0.1-0.2,0.2-0.3,0.3-0.6c0-0.2,0-0.4,0-0.7v-4.6h1v4.9c0,0.8-0.2,1.3-0.7,1.6C52.9,78.4,52.1,78.6,51.2,78.6z"/>
	<path class="st0" d="M56.6,78.4v-4.7c0-0.4,0.1-0.7,0.2-1c0.1-0.3,0.3-0.5,0.5-0.6c0.2-0.2,0.5-0.3,0.8-0.4
		c0.3-0.1,0.7-0.1,1.1-0.1c0,0,1.3,0,1.4,0l-0.2,0.8c0,0-0.5,0-0.7,0h-0.4c-0.4,0-0.6,0-0.8,0.1c-0.2,0.1-0.4,0.2-0.5,0.4
		c-0.1,0.2-0.2,0.3-0.2,0.6c0,0.2,0,0.4,0,0.6v4.4H56.6z"/>
	<path class="st0" d="M56.6,78.4v-4.7c0-0.4,0.1-0.7,0.2-1c0.1-0.3,0.3-0.5,0.5-0.6c0.2-0.2,0.5-0.3,0.8-0.4
		c0.3-0.1,0.7-0.1,1.1-0.1c0,0,1.3,0,1.4,0l-0.2,0.8c0,0-0.5,0-0.7,0h-0.4c-0.4,0-0.6,0-0.8,0.1c-0.2,0.1-0.4,0.2-0.5,0.4
		c-0.1,0.2-0.2,0.3-0.2,0.6c0,0.2,0,0.4,0,0.6v4.4H56.6z"/>
	<path class="st0" d="M66.2,78.4v-6.9c0-0.6,0.1-1.1,0.2-1.5c0.1-0.4,0.3-0.7,0.5-0.9c0.2-0.2,0.5-0.4,0.9-0.5
		c0.4-0.1,0.9-0.2,1.5-0.2c0,0,1.2,0,1.3,0l-0.2,0.8c-0.1,0-1,0-1,0c-0.4,0-0.8,0-1,0.1c-0.3,0.1-0.5,0.2-0.7,0.3
		c-0.2,0.2-0.3,0.4-0.3,0.7c-0.1,0.3-0.1,0.6-0.1,1.1v0.2H70l-0.2,0.8h-2.5v6H66.2z"/>
	<path class="st0" d="M66.2,78.4v-6.9c0-0.6,0.1-1.1,0.2-1.5c0.1-0.4,0.3-0.7,0.5-0.9c0.2-0.2,0.5-0.4,0.9-0.5
		c0.4-0.1,0.9-0.2,1.5-0.2c0,0,1.2,0,1.3,0l-0.2,0.8c-0.1,0-1,0-1,0c-0.4,0-0.8,0-1,0.1c-0.3,0.1-0.5,0.2-0.7,0.3
		c-0.2,0.2-0.3,0.4-0.3,0.7c-0.1,0.3-0.1,0.6-0.1,1.1v0.2H70l-0.2,0.8h-2.5v6H66.2z"/>
	<path class="st0" d="M74.8,78.6c-1,0-1.8-0.2-2.3-0.5c-0.5-0.3-0.7-0.8-0.7-1.6v-4.9h1v4.6c0,0.2,0,0.5,0,0.7
		c0,0.2,0.1,0.4,0.3,0.6c0.1,0.2,0.3,0.3,0.6,0.3c0.2,0.1,0.6,0.1,1,0.1c0.4,0,0.8,0,1-0.1c0.3-0.1,0.5-0.2,0.6-0.3
		c0.1-0.2,0.2-0.3,0.3-0.6c0-0.2,0-0.4,0-0.7v-4.6h1v4.9c0,0.8-0.2,1.3-0.7,1.6C76.6,78.4,75.8,78.6,74.8,78.6z"/>
	<path class="st0" d="M74.8,78.6c-1,0-1.8-0.2-2.3-0.5c-0.5-0.3-0.7-0.8-0.7-1.6v-4.9h1v4.6c0,0.2,0,0.5,0,0.7
		c0,0.2,0.1,0.4,0.3,0.6c0.1,0.2,0.3,0.3,0.6,0.3c0.2,0.1,0.6,0.1,1,0.1c0.4,0,0.8,0,1-0.1c0.3-0.1,0.5-0.2,0.6-0.3
		c0.1-0.2,0.2-0.3,0.3-0.6c0-0.2,0-0.4,0-0.7v-4.6h1v4.9c0,0.8-0.2,1.3-0.7,1.6C76.6,78.4,75.8,78.6,74.8,78.6z"/>
	<path class="st0" d="M82.8,78.4c-0.5,0-1,0-1.3-0.1c-0.3-0.1-0.6-0.2-0.7-0.4c-0.2-0.2-0.3-0.4-0.4-0.7c-0.1-0.3-0.1-0.7-0.1-1.2
		v-6.1l1-0.2v1.9h2.6l-0.2,0.8h-2.4V76c0,0.3,0,0.6,0.1,0.8c0,0.2,0.1,0.4,0.2,0.6c0.1,0.1,0.3,0.2,0.5,0.3c0.2,0,0.4,0.1,0.7,0.1h1
		l-0.2,0.7H82.8z"/>
	<path class="st0" d="M82.8,78.4c-0.5,0-1,0-1.3-0.1c-0.3-0.1-0.6-0.2-0.7-0.4c-0.2-0.2-0.3-0.4-0.4-0.7c-0.1-0.3-0.1-0.7-0.1-1.2
		v-6.1l1-0.2v1.9h2.6l-0.2,0.8h-2.4V76c0,0.3,0,0.6,0.1,0.8c0,0.2,0.1,0.4,0.2,0.6c0.1,0.1,0.3,0.2,0.5,0.3c0.2,0,0.4,0.1,0.7,0.1h1
		l-0.2,0.7H82.8z"/>
	<path class="st0" d="M88.8,78.6c-1,0-1.8-0.2-2.3-0.5c-0.5-0.3-0.7-0.8-0.7-1.6v-4.9h1v4.6c0,0.2,0,0.5,0,0.7
		c0,0.2,0.1,0.4,0.3,0.6c0.1,0.2,0.3,0.3,0.6,0.3c0.2,0.1,0.6,0.1,1,0.1c0.4,0,0.8,0,1-0.1c0.3-0.1,0.5-0.2,0.6-0.3
		c0.1-0.2,0.2-0.3,0.3-0.6c0-0.2,0-0.4,0-0.7v-4.6h1v4.9c0,0.8-0.2,1.3-0.7,1.6C90.6,78.4,89.8,78.6,88.8,78.6z"/>
	<path class="st0" d="M88.8,78.6c-1,0-1.8-0.2-2.3-0.5c-0.5-0.3-0.7-0.8-0.7-1.6v-4.9h1v4.6c0,0.2,0,0.5,0,0.7
		c0,0.2,0.1,0.4,0.3,0.6c0.1,0.2,0.3,0.3,0.6,0.3c0.2,0.1,0.6,0.1,1,0.1c0.4,0,0.8,0,1-0.1c0.3-0.1,0.5-0.2,0.6-0.3
		c0.1-0.2,0.2-0.3,0.3-0.6c0-0.2,0-0.4,0-0.7v-4.6h1v4.9c0,0.8-0.2,1.3-0.7,1.6C90.6,78.4,89.8,78.6,88.8,78.6z"/>
	<path class="st0" d="M94.3,78.4v-4.7c0-0.4,0.1-0.7,0.2-1c0.1-0.3,0.3-0.5,0.5-0.6c0.2-0.2,0.5-0.3,0.8-0.4
		c0.3-0.1,0.7-0.1,1.1-0.1c0,0,1.3,0,1.4,0L98,72.3c0,0-0.5,0-0.7,0h-0.4c-0.4,0-0.6,0-0.8,0.1c-0.2,0.1-0.4,0.2-0.5,0.4
		c-0.1,0.2-0.2,0.3-0.2,0.6c0,0.2,0,0.4,0,0.6v4.4H94.3z"/>
	<path class="st0" d="M94.3,78.4v-4.7c0-0.4,0.1-0.7,0.2-1c0.1-0.3,0.3-0.5,0.5-0.6c0.2-0.2,0.5-0.3,0.8-0.4
		c0.3-0.1,0.7-0.1,1.1-0.1c0,0,1.3,0,1.4,0L98,72.3c0,0-0.5,0-0.7,0h-0.4c-0.4,0-0.6,0-0.8,0.1c-0.2,0.1-0.4,0.2-0.5,0.4
		c-0.1,0.2-0.2,0.3-0.2,0.6c0,0.2,0,0.4,0,0.6v4.4H94.3z"/>
	<path class="st0" d="M102.6,78.4c-0.6,0-1.2-0.1-1.5-0.2c-0.4-0.1-0.7-0.3-0.9-0.6c-0.2-0.3-0.4-0.6-0.4-0.9
		c-0.1-0.4-0.1-0.8-0.1-1.3v-0.8c0-0.5,0-1,0.1-1.4c0.1-0.4,0.2-0.7,0.4-1c0.2-0.3,0.5-0.5,0.9-0.6c0.4-0.1,0.9-0.2,1.6-0.2
		c0.6,0,1.1,0.1,1.5,0.2c0.4,0.1,0.6,0.3,0.8,0.5c0.2,0.2,0.3,0.5,0.4,0.8c0.1,0.3,0.1,0.6,0.1,0.9V74c0,0.3,0,0.6-0.1,0.8
		c0,0.2-0.1,0.3-0.1,0.4c-0.1,0.1-0.1,0.1-0.2,0.1c-0.1,0-0.2,0-0.4,0h-4.1v0.2c0,0.4,0,0.7,0.1,1c0,0.3,0.2,0.5,0.3,0.7
		c0.2,0.2,0.4,0.3,0.6,0.4c0.2,0.1,0.6,0.1,0.9,0.1h1c0.4,0,0.8,0,1.3,0l-0.2,0.8l-0.6,0l-0.6,0H102.6z M102.6,72.1
		c-0.4,0-0.7,0-1,0.1c-0.3,0.1-0.5,0.2-0.6,0.4c-0.1,0.2-0.3,0.4-0.3,0.7c0,0.3-0.1,0.6-0.1,1.1v0.2h3.9v-0.7c0-0.3,0-0.6-0.1-0.8
		c-0.1-0.3-0.2-0.5-0.3-0.6c-0.2-0.1-0.4-0.3-0.6-0.3C103.3,72.1,103,72.1,102.6,72.1z"/>
	<path class="st0" d="M102.6,78.4c-0.6,0-1.2-0.1-1.5-0.2c-0.4-0.1-0.7-0.3-0.9-0.6c-0.2-0.3-0.4-0.6-0.4-0.9
		c-0.1-0.4-0.1-0.8-0.1-1.3v-0.8c0-0.5,0-1,0.1-1.4c0.1-0.4,0.2-0.7,0.4-1c0.2-0.3,0.5-0.5,0.9-0.6c0.4-0.1,0.9-0.2,1.6-0.2
		c0.6,0,1.1,0.1,1.5,0.2c0.4,0.1,0.6,0.3,0.8,0.5c0.2,0.2,0.3,0.5,0.4,0.8c0.1,0.3,0.1,0.6,0.1,0.9V74c0,0.3,0,0.6-0.1,0.8
		c0,0.2-0.1,0.3-0.1,0.4c-0.1,0.1-0.1,0.1-0.2,0.1c-0.1,0-0.2,0-0.4,0h-4.1v0.2c0,0.4,0,0.7,0.1,1c0,0.3,0.2,0.5,0.3,0.7
		c0.2,0.2,0.4,0.3,0.6,0.4c0.2,0.1,0.6,0.1,0.9,0.1h1c0.4,0,0.8,0,1.3,0l-0.2,0.8l-0.6,0l-0.6,0H102.6z M102.6,72.1
		c-0.4,0-0.7,0-1,0.1c-0.3,0.1-0.5,0.2-0.6,0.4c-0.1,0.2-0.3,0.4-0.3,0.7c0,0.3-0.1,0.6-0.1,1.1v0.2h3.9v-0.7c0-0.3,0-0.6-0.1-0.8
		c-0.1-0.3-0.2-0.5-0.3-0.6c-0.2-0.1-0.4-0.3-0.6-0.3C103.3,72.1,103,72.1,102.6,72.1z"/>
</g>
</svg>
